<?xml version="1.0" encoding="utf-8"?>
<!-- Generator: Adobe Illustrator 24.1.1, SVG Export Plug-In . SVG Version: 6.00 Build 0)  -->
<svg version="1.1" id="Layer_1" xmlns="http://www.w3.org/2000/svg" xmlns:xlink="http://www.w3.org/1999/xlink" x="0px" y="0px"
	 viewBox="0 0 1000 1000" style="enable-background:new 0 0 1000 1000;" xml:space="preserve">
<style type="text/css">
	.st0{fill:#478F31;}
</style>
<g>
	<path class="st0" d="M599.6,546.4v-63.1l-62.3,17.9v45.2H599.6z M346.9,282.4c2.9,0,5.8-0.4,8.6-1.2l306.3-88
		c16.5-4.7,26.1-22,21.3-38.5c-3.8-13.3-16.1-22.6-29.9-22.6c-2.9,0-5.8,0.4-8.6,1.2l-306.3,88c-8,2.3-14.6,7.6-18.6,14.9
		c-4,7.3-5,15.7-2.7,23.7C320.8,273.1,333.1,282.4,346.9,282.4z M346.9,546.4c2.9,0,5.8-0.4,8.6-1.2l306.3-88
		c16.5-4.7,26.1-22,21.3-38.5c-3.8-13.3-16.1-22.5-29.9-22.5c-2.9,0-5.8,0.4-8.6,1.2l-306.3,88c-8,2.3-14.6,7.6-18.6,14.9
		c-4,7.3-5,15.7-2.7,23.7C320.8,537.1,333.1,546.4,346.9,546.4z M346.9,194.3c2.9,0,5.8-0.4,8.6-1.2l306.3-88
		c16.5-4.7,26.1-22,21.3-38.5C679.3,53.3,667,44,653.2,44c-2.9,0-5.8,0.4-8.6,1.2l-306.3,88c-8,2.3-14.6,7.6-18.6,14.9
		c-4,7.3-5,15.7-2.7,23.7C320.8,185.1,333.1,194.3,346.9,194.3z M683.1,242.6c-3.8-13.3-16.1-22.6-29.9-22.6c-2.9,0-5.8,0.4-8.6,1.2
		l-306.3,88c-16.5,4.7-26.1,22-21.3,38.5c3.8,13.3,16.1,22.6,29.9,22.6c2.9,0,5.8-0.4,8.6-1.2l306.3-88c8-2.3,14.6-7.6,18.6-14.9
		C684.5,259,685.4,250.6,683.1,242.6z M669.2,554.4H330.8c-16,0-29,13-29,29v52.5c0,82.3,61.2,129.6,98.3,150.7h199.8
		c37.2-21.1,98.3-68.4,98.3-150.7v-52.5C698.2,567.4,685.2,554.4,669.2,554.4z M653.2,308.1c-2.9,0-5.8,0.4-8.6,1.2l-306.3,88
		c-16.5,4.7-26.1,22-21.3,38.5c3.8,13.3,16.1,22.6,29.9,22.6c2.9,0,5.8-0.4,8.6-1.2l306.3-88c8-2.3,14.6-7.6,18.6-14.9
		c4-7.3,5-15.7,2.7-23.7C679.3,317.3,667,308.1,653.2,308.1z M346.9,106.3c2.9,0,5.8-0.4,8.6-1.2l153.1-44
		c16.5-4.7,26.1-22,21.3-38.5C526.2,9.3,513.9,0,500.1,0c-2.9,0-5.8,0.4-8.6,1.2l-153.1,44c-16.5,4.7-26.1,22-21.3,38.5
		C320.8,97,333.1,106.3,346.9,106.3z M582.5,868.6H417.6c-4.8,0-8.7,3.9-8.7,8.7v8.2c0,4.8,3.9,8.7,8.7,8.7h164.9
		c4.8,0,8.7-3.9,8.7-8.7v-8.2C591.2,872.5,587.3,868.6,582.5,868.6z M462.6,546.4v-23.7l-62.3,17.9v5.8H462.6z M403.1,846.2
		c0,8,6.5,14.5,14.5,14.5h165.1c8,0,14.5-6.5,14.5-14.5v-51.6h-194V846.2z M582.5,902.2H417.6c-4.8,0-8.7,3.9-8.7,8.7v8.2
		c0,4.8,3.9,8.7,8.7,8.7h164.9c4.8,0,8.7-3.9,8.7-8.7v-8.2C591.2,906.1,587.3,902.2,582.5,902.2z M460.9,992.2
		c3.2,4.9,8.6,7.8,14.4,7.8h49.5c5.8,0,11.2-2.9,14.4-7.8l14.8-22.8H446.1L460.9,992.2z M582.5,935.8H417.6c-4.8,0-8.7,3.9-8.7,8.7
		v8.2c0,4.8,3.9,8.7,8.7,8.7h164.9c4.8,0,8.7-3.9,8.7-8.7v-8.2C591.2,939.7,587.3,935.8,582.5,935.8z"/>
</g>
</svg>
